<svg width="265" height="47" viewBox="0 0 265 47" fill="none" xmlns="http://www.w3.org/2000/svg">
<path d="M16.512 46.2081C12.7573 46.2081 9.49334 45.5894 6.72001 44.3521C3.94667 43.1147 1.70667 41.4294 6.55651e-06 39.2961L5.56801 33.1521C7.18934 34.9441 8.96001 36.2667 10.88 37.1201C12.8427 37.9734 14.8267 38.4001 16.832 38.4001C19.136 38.4001 20.8853 37.8881 22.08 36.8641C23.2747 35.8401 23.872 34.3681 23.872 32.4481C23.872 30.8694 23.4027 29.6747 22.464 28.8641C21.568 28.0534 20.032 27.4774 17.856 27.1361L13.184 26.3681C9.17334 25.6854 6.27201 24.2134 4.48001 21.9521C2.68801 19.6481 1.79201 16.8534 1.79201 13.5681C1.79201 9.25873 3.20001 5.93073 6.01601 3.58406C8.83201 1.19473 12.7787 6.10352e-05 17.856 6.10352e-05C21.312 6.10352e-05 24.32 0.533394 26.88 1.60006C29.44 2.66673 31.5093 4.11739 33.088 5.95206L27.648 12.0321C26.4533 10.7094 25.0453 9.68539 23.424 8.96006C21.8027 8.19206 19.968 7.80806 17.92 7.80806C13.6107 7.80806 11.456 9.57873 11.456 13.1201C11.456 14.6561 11.9253 15.8081 12.864 16.5761C13.8453 17.3441 15.424 17.9201 17.6 18.3041L22.272 19.1361C25.8987 19.7761 28.6933 21.1414 30.656 23.2321C32.6187 25.3227 33.6 28.1387 33.6 31.6801C33.6 33.7707 33.2373 35.7121 32.512 37.5041C31.7867 39.2534 30.6987 40.7894 29.248 42.1121C27.7973 43.3921 26.0053 44.3947 23.872 45.1201C21.7813 45.8454 19.328 46.2081 16.512 46.2081ZM56.487 46.2081C50.9403 46.2081 46.7377 44.6721 43.879 41.6001C41.0203 38.5281 39.591 34.3467 39.591 29.0561C39.591 26.3681 39.9537 23.9574 40.679 21.8241C41.447 19.6481 42.5137 17.8134 43.879 16.3201C45.287 14.7841 46.9723 13.6321 48.935 12.8641C50.9403 12.0534 53.1803 11.6481 55.655 11.6481C58.1297 11.6481 60.3483 12.0534 62.311 12.8641C64.2737 13.6321 65.9377 14.7414 67.303 16.1921C68.6683 17.6427 69.7137 19.4134 70.439 21.5041C71.207 23.5521 71.591 25.8561 71.591 28.4161V31.2321H48.999V31.8081C48.999 33.9414 49.6603 35.6694 50.983 36.9921C52.3057 38.2721 54.247 38.9121 56.807 38.9121C58.7697 38.9121 60.455 38.5494 61.863 37.8241C63.271 37.0561 64.487 36.0534 65.511 34.8161L70.631 40.3841C69.351 41.9627 67.559 43.3281 65.255 44.4801C62.951 45.6321 60.0283 46.2081 56.487 46.2081ZM55.719 18.4321C53.671 18.4321 52.0283 19.0721 50.791 20.3521C49.5963 21.5894 48.999 23.2747 48.999 25.4081V25.9201H62.311V25.4081C62.311 23.2321 61.7137 21.5254 60.519 20.2881C59.367 19.0507 57.767 18.4321 55.719 18.4321ZM95.31 46.2081C92.7073 46.2081 90.3607 45.8241 88.27 45.0561C86.222 44.2454 84.4727 43.0934 83.022 41.6001C81.614 40.1067 80.526 38.2934 79.758 36.1601C78.99 34.0267 78.606 31.6161 78.606 28.9281C78.606 26.2401 78.99 23.8294 79.758 21.6961C80.526 19.5627 81.614 17.7494 83.022 16.2561C84.4727 14.7627 86.222 13.6321 88.27 12.8641C90.3607 12.0534 92.686 11.6481 95.246 11.6481C98.8727 11.6481 101.774 12.3947 103.95 13.8881C106.169 15.3387 107.854 17.2801 109.006 19.7121L101.71 23.6801C101.113 22.4001 100.323 21.3334 99.342 20.4801C98.4033 19.6267 97.038 19.2001 95.246 19.2001C93.07 19.2001 91.3847 19.8401 90.19 21.1201C89.038 22.3574 88.462 24.0641 88.462 26.2401V31.6161C88.462 33.7921 89.038 35.5201 90.19 36.8001C91.3847 38.0374 93.1127 38.6561 95.374 38.6561C97.2087 38.6561 98.638 38.2294 99.662 37.3761C100.729 36.5227 101.625 35.4134 102.35 34.0481L109.518 38.1441C108.323 40.5761 106.574 42.5387 104.27 44.0321C102.009 45.4827 99.022 46.2081 95.31 46.2081ZM117.877 38.0801H125.493V19.7761H117.877V12.4161H134.965V21.7601H135.413C135.712 20.5654 136.117 19.4134 136.629 18.3041C137.184 17.1521 137.866 16.1494 138.677 15.2961C139.53 14.4001 140.554 13.6961 141.749 13.1841C142.944 12.6721 144.352 12.4161 145.973 12.4161H149.109V21.1201H142.069C139.722 21.1201 137.952 21.8241 136.757 23.2321C135.562 24.5974 134.965 26.2827 134.965 28.2881V38.0801H145.845V45.4401H117.877V38.0801ZM171.612 46.2081C166.065 46.2081 161.863 44.6721 159.004 41.6001C156.145 38.5281 154.716 34.3467 154.716 29.0561C154.716 26.3681 155.079 23.9574 155.804 21.8241C156.572 19.6481 157.639 17.8134 159.004 16.3201C160.412 14.7841 162.097 13.6321 164.06 12.8641C166.065 12.0534 168.305 11.6481 170.78 11.6481C173.255 11.6481 175.473 12.0534 177.436 12.8641C179.399 13.6321 181.063 14.7414 182.428 16.1921C183.793 17.6427 184.839 19.4134 185.564 21.5041C186.332 23.5521 186.716 25.8561 186.716 28.4161V31.2321H164.124V31.8081C164.124 33.9414 164.785 35.6694 166.108 36.9921C167.431 38.2721 169.372 38.9121 171.932 38.9121C173.895 38.9121 175.58 38.5494 176.988 37.8241C178.396 37.0561 179.612 36.0534 180.636 34.8161L185.756 40.3841C184.476 41.9627 182.684 43.3281 180.38 44.4801C178.076 45.6321 175.153 46.2081 171.612 46.2081ZM170.844 18.4321C168.796 18.4321 167.153 19.0721 165.916 20.3521C164.721 21.5894 164.124 23.2747 164.124 25.4081V25.9201H177.436V25.4081C177.436 23.2321 176.839 21.5254 175.644 20.2881C174.492 19.0507 172.892 18.4321 170.844 18.4321ZM211.651 45.4401C208.238 45.4401 205.699 44.5441 204.035 42.7521C202.371 40.9601 201.539 38.6774 201.539 35.9041V19.7761H192.579V12.4161H198.403C199.811 12.4161 200.814 12.1387 201.411 11.5841C202.008 11.0294 202.307 10.0054 202.307 8.51206V0.768063H211.011V12.4161H223.875V19.7761H211.011V38.0801H223.875V45.4401H211.651ZM247.466 46.2081C241.493 46.2081 237.077 44.1814 234.218 40.1281C231.402 36.0747 229.994 30.4001 229.994 23.1041C229.994 15.8081 231.402 10.1334 234.218 6.08006C237.077 2.02673 241.493 6.10352e-05 247.466 6.10352e-05C253.439 6.10352e-05 257.834 2.02673 260.65 6.08006C263.509 10.1334 264.938 15.8081 264.938 23.1041C264.938 30.4001 263.509 36.0747 260.65 40.1281C257.834 44.1814 253.439 46.2081 247.466 46.2081ZM247.466 38.6561C250.325 38.6561 252.309 37.6534 253.418 35.6481C254.57 33.6427 255.146 30.8481 255.146 27.2641V18.9441C255.146 15.3601 254.57 12.5654 253.418 10.5601C252.309 8.55473 250.325 7.55206 247.466 7.55206C244.607 7.55206 242.602 8.55473 241.45 10.5601C240.341 12.5654 239.786 15.3601 239.786 18.9441V27.2641C239.786 30.8481 240.341 33.6427 241.45 35.6481C242.602 37.6534 244.607 38.6561 247.466 38.6561ZM247.466 26.8801C245.973 26.8801 244.927 26.5814 244.33 25.9841C243.775 25.3867 243.498 24.6614 243.498 23.8081V22.4001C243.498 21.5467 243.775 20.8214 244.33 20.2241C244.927 19.6267 245.973 19.3281 247.466 19.3281C248.959 19.3281 249.983 19.6267 250.538 20.2241C251.135 20.8214 251.434 21.5467 251.434 22.4001V23.8081C251.434 24.6614 251.135 25.3867 250.538 25.9841C249.983 26.5814 248.959 26.8801 247.466 26.8801Z" fill="#4F46E5"/>
</svg>
